<?xml version="1.0" encoding="UTF-8" standalone="no"?>
<!DOCTYPE svg PUBLIC "-//W3C//DTD SVG 1.1//EN" "http://www.w3.org/Graphics/SVG/1.1/DTD/svg11.dtd">
<svg width="100%" height="100%" viewBox="0 0 1326 1282" version="1.1" xmlns="http://www.w3.org/2000/svg" xmlns:xlink="http://www.w3.org/1999/xlink" xml:space="preserve" xmlns:serif="http://www.serif.com/" style="fill-rule:evenodd;clip-rule:evenodd;stroke-linejoin:round;stroke-miterlimit:2;">
    <g transform="matrix(-3.042179,0,0,3.236683,1532.718683,-234.955736)">
        <path d="M292.493,81.58C341.918,86.131 450.533,112.92 485.468,196.514C507.948,250.304 498.777,322.34 443.402,351.302C413.178,367.11 384.116,361.013 382.609,361.83C378.498,364.057 370.924,388.98 370.28,439.493C370.216,444.572 372.441,460.533 355.472,458.625C342.045,457.115 348.344,420.735 301.366,377.643C296.063,372.779 269.931,352.002 259.519,352.639C251.441,353.134 187.32,366.508 156.511,307.494C149.643,294.339 151.704,292.057 147.504,291.475C63.244,279.792 64.364,213.339 82.684,178.592C93.562,157.962 92.576,157.31 107.858,139.805C143.954,98.457 200.114,85.108 218.483,83.372C225.055,82.751 224.878,81.94 231.501,81.51C245.564,80.599 245.463,79.729 259.502,79.705C276.036,79.678 275.915,80.546 292.493,81.58ZM288.195,105.336C288.21,105.13 289.532,103.94 287.445,103.626C286.391,103.467 284.117,103.68 278.497,103.554C235.226,102.582 235.403,104.795 227.487,105.403C214.857,106.375 215.116,107.621 202.575,109.832C202.033,109.927 199.891,111.088 199.417,111.193C195.849,111.988 195.996,112.307 192.414,113.215C180.336,116.277 162.781,125.817 160.322,127.153C115.985,151.246 83.834,206.87 99.705,239.404C109.818,260.133 137.433,266.539 142.547,267.259C149.638,268.256 140.517,250.716 154.683,215.573C179.963,152.856 236.131,143.744 238.582,142.815C245.315,140.263 247.062,143.156 251.175,137.254C267.356,114.04 285.983,106.995 288.195,105.336ZM350.361,396.447C350.243,387.272 355.223,338.045 381.5,338.539C397.542,338.84 397.525,339.816 413.452,337.275C472.219,327.897 496.825,243.089 447.368,176.635C443.591,171.56 444.002,177.337 444.477,178.503C451.533,195.843 451.476,279.428 298.335,342.176C291.867,344.826 300.867,345.498 318.262,361.756C345.55,387.26 344.891,396.924 349.314,397.14L350.361,396.447ZM319.505,119.535C297.43,123.345 285.787,134.172 282.561,136.561C277.283,140.469 284.201,138.859 290.416,140.929C293.019,141.796 294.517,140.548 300.402,142.838C303.813,144.166 303.975,143.406 307.328,144.937C309.295,145.835 313.081,147.103 313.588,147.273C329.954,152.755 348.877,171.732 350.579,192.49C351.621,205.194 354.608,241.053 287.625,271.766C275.344,277.396 269.148,278.996 267.478,279.427C258.291,281.799 258.772,283.265 237.476,287.381C182.322,298.041 179.039,290.391 176.879,293.992C174.507,297.947 189.807,317.823 204.562,324.374C270.097,353.475 377.669,279.426 404.959,241.848C411.455,232.902 432.68,204.604 418.607,170.457C416.756,165.964 406.967,142.213 375.394,127.77C365.357,123.179 356.303,121.429 354.587,121.097C350.993,120.403 351.218,119.728 347.505,119.468C345.514,119.328 343.518,119.268 341.526,119.158C339.283,119.034 335.5,117.643 329.503,118.548C324.52,119.301 324.609,119.183 319.505,119.535ZM253.495,163.456C238.15,164.825 217.536,173.754 205.718,183.77C186.84,199.769 182.213,210.855 175.712,224.585C174.422,227.31 169.619,245.315 169.365,249.486C168.116,269.99 169.791,270.409 171.475,270.646C180.54,271.924 231.383,267.07 245.57,261.763C246.378,261.46 317.582,245.732 327.751,204.546C329.028,199.371 328.369,184.062 314.284,173.81C307.964,169.209 301.773,167.494 300.601,167.169C292.287,164.865 292.524,163.795 282.526,163.202C277.181,162.884 276.879,160.97 253.495,163.456Z"/>
    </g>
</svg>
